<?xml version="1.0" encoding="UTF-8"?>
<svg xmlns="http://www.w3.org/2000/svg" xmlns:xlink="http://www.w3.org/1999/xlink" width="347pt" height="68pt" viewBox="0 0 347 68" version="1.1">
<g id="surface1">
<path style=" stroke:none;fill-rule:nonzero;fill:rgb(36.862745%,72.941176%,0%);fill-opacity:1;" d="M 8.960938 0 L 121.367188 0 C 126.316406 0 130.328125 4.019531 130.328125 8.976562 L 130.328125 59.023438 C 130.328125 63.980469 126.316406 68 121.367188 68 L 8.960938 68 C 4.011719 68 0 63.980469 0 59.023438 L 0 8.976562 C 0 4.019531 4.011719 0 8.960938 0 Z M 8.960938 0 "/>
<path style=" stroke:none;fill-rule:nonzero;fill:rgb(100%,100%,100%);fill-opacity:1;" d="M 32.3125 54.945312 C 29.777344 54.945312 27.496094 54.636719 25.46875 54.019531 C 23.441406 53.367188 21.503906 52.242188 19.65625 50.644531 C 19.1875 50.246094 18.824219 49.792969 18.570312 49.285156 C 18.320312 48.777344 18.191406 48.269531 18.191406 47.761719 C 18.191406 46.929688 18.480469 46.203125 19.0625 45.585938 C 19.675781 44.933594 20.4375 44.609375 21.339844 44.609375 C 22.027344 44.609375 22.644531 44.824219 23.1875 45.261719 C 24.5625 46.386719 25.921875 47.238281 27.261719 47.816406 C 28.636719 48.398438 30.320312 48.6875 32.3125 48.6875 C 33.648438 48.6875 34.882812 48.488281 36.003906 48.089844 C 37.125 47.65625 38.03125 47.09375 38.71875 46.402344 C 39.40625 45.679688 39.75 44.863281 39.75 43.957031 C 39.75 42.867188 39.425781 41.941406 38.773438 41.179688 C 38.121094 40.417969 37.125 39.785156 35.785156 39.277344 C 34.445312 38.734375 32.746094 38.316406 30.679688 38.027344 C 28.726562 37.734375 27.007812 37.300781 25.523438 36.71875 C 24.039062 36.101562 22.789062 35.339844 21.777344 34.433594 C 20.796875 33.492188 20.054688 32.402344 19.550781 31.171875 C 19.042969 29.902344 18.789062 28.488281 18.789062 26.929688 C 18.789062 24.570312 19.386719 22.558594 20.582031 20.890625 C 21.8125 19.222656 23.460938 17.953125 25.523438 17.082031 C 27.585938 16.210938 29.867188 15.777344 32.363281 15.777344 C 34.71875 15.777344 36.890625 16.136719 38.882812 16.863281 C 40.910156 17.554688 42.554688 18.441406 43.824219 19.53125 C 44.871094 20.363281 45.398438 21.324219 45.398438 22.414062 C 45.398438 23.210938 45.089844 23.9375 44.476562 24.589844 C 43.859375 25.242188 43.136719 25.566406 42.300781 25.566406 C 41.757812 25.566406 41.269531 25.40625 40.835938 25.078125 C 40.257812 24.570312 39.480469 24.097656 38.5 23.664062 C 37.523438 23.191406 36.492188 22.8125 35.40625 22.523438 C 34.320312 22.195312 33.304688 22.03125 32.363281 22.03125 C 30.808594 22.03125 29.488281 22.230469 28.402344 22.628906 C 27.351562 23.03125 26.554688 23.574219 26.011719 24.261719 C 25.46875 24.953125 25.195312 25.75 25.195312 26.65625 C 25.195312 27.742188 25.503906 28.652344 26.121094 29.375 C 26.773438 30.066406 27.695312 30.628906 28.890625 31.0625 C 30.085938 31.460938 31.515625 31.824219 33.179688 32.152344 C 35.351562 32.550781 37.253906 33.019531 38.882812 33.566406 C 40.546875 34.109375 41.921875 34.816406 43.007812 35.6875 C 44.09375 36.519531 44.910156 37.589844 45.453125 38.894531 C 45.996094 40.164062 46.265625 41.726562 46.265625 43.574219 C 46.265625 45.933594 45.613281 47.960938 44.3125 49.667969 C 43.007812 51.371094 41.289062 52.675781 39.152344 53.585938 C 37.054688 54.492188 34.773438 54.945312 32.3125 54.945312 Z M 68.1875 16.320312 C 70.070312 16.320312 71.828125 16.863281 73.457031 17.953125 C 75.121094 19.039062 76.460938 20.507812 77.472656 22.359375 C 78.488281 24.207031 78.996094 26.273438 78.996094 28.558594 C 78.996094 30.808594 78.488281 32.859375 77.472656 34.707031 C 76.460938 36.558594 75.121094 38.042969 73.457031 39.167969 C 71.828125 40.257812 70.070312 40.800781 68.1875 40.800781 L 58.195312 40.800781 L 58.738281 39.820312 L 58.738281 51.082031 C 58.738281 52.023438 58.449219 52.824219 57.871094 53.476562 C 57.292969 54.09375 56.53125 54.398438 55.589844 54.398438 C 54.683594 54.398438 53.941406 54.09375 53.363281 53.476562 C 52.785156 52.824219 52.496094 52.023438 52.496094 51.082031 L 52.496094 19.636719 C 52.496094 18.695312 52.800781 17.914062 53.417969 17.300781 C 54.070312 16.644531 54.867188 16.320312 55.808594 16.320312 Z M 68.1875 34.597656 C 68.875 34.597656 69.546875 34.308594 70.195312 33.726562 C 70.847656 33.148438 71.390625 32.402344 71.828125 31.496094 C 72.261719 30.554688 72.476562 29.574219 72.476562 28.558594 C 72.476562 27.507812 72.261719 26.527344 71.828125 25.621094 C 71.390625 24.714844 70.847656 23.992188 70.195312 23.445312 C 69.546875 22.867188 68.875 22.574219 68.1875 22.574219 L 58.085938 22.574219 L 58.738281 21.597656 L 58.738281 35.46875 L 58.140625 34.597656 Z M 100.90625 16.320312 C 102.789062 16.320312 104.546875 16.863281 106.175781 17.953125 C 107.839844 19.039062 109.179688 20.507812 110.195312 22.359375 C 111.207031 24.207031 111.714844 26.273438 111.714844 28.558594 C 111.714844 30.808594 111.207031 32.859375 110.195312 34.707031 C 109.179688 36.558594 107.839844 38.042969 106.175781 39.167969 C 104.546875 40.257812 102.789062 40.800781 100.90625 40.800781 L 90.917969 40.800781 L 91.460938 39.820312 L 91.460938 51.082031 C 91.460938 52.023438 91.167969 52.824219 90.589844 53.476562 C 90.011719 54.09375 89.25 54.398438 88.308594 54.398438 C 87.40625 54.398438 86.664062 54.09375 86.082031 53.476562 C 85.503906 52.824219 85.214844 52.023438 85.214844 51.082031 L 85.214844 19.636719 C 85.214844 18.695312 85.523438 17.914062 86.136719 17.300781 C 86.789062 16.644531 87.585938 16.320312 88.527344 16.320312 Z M 100.90625 34.597656 C 101.597656 34.597656 102.265625 34.308594 102.917969 33.726562 C 103.570312 33.148438 104.113281 32.402344 104.546875 31.496094 C 104.980469 30.554688 105.199219 29.574219 105.199219 28.558594 C 105.199219 27.507812 104.980469 26.527344 104.546875 25.621094 C 104.113281 24.714844 103.570312 23.992188 102.917969 23.445312 C 102.265625 22.867188 101.597656 22.574219 100.90625 22.574219 L 90.808594 22.574219 L 91.460938 21.597656 L 91.460938 35.46875 L 90.863281 34.597656 Z M 100.90625 34.597656 "/>
<path style=" stroke:none;fill-rule:nonzero;fill:rgb(29.019608%,29.019608%,29.019608%);fill-opacity:1;" d="M 175.507812 16.265625 C 176.449219 16.265625 177.210938 16.59375 177.789062 17.246094 C 178.367188 17.863281 178.660156 18.640625 178.660156 19.585938 L 178.660156 39.277344 C 178.660156 42.285156 178.007812 44.953125 176.703125 47.273438 C 175.4375 49.59375 173.679688 51.40625 171.4375 52.714844 C 169.191406 54.019531 166.585938 54.671875 163.617188 54.671875 C 160.648438 54.671875 158.023438 54.019531 155.742188 52.714844 C 153.5 51.40625 151.722656 49.59375 150.421875 47.273438 C 149.152344 44.953125 148.519531 42.285156 148.519531 39.277344 L 148.519531 19.585938 C 148.519531 18.640625 148.847656 17.863281 149.496094 17.246094 C 150.148438 16.59375 150.980469 16.265625 151.996094 16.265625 C 152.828125 16.265625 153.570312 16.59375 154.222656 17.246094 C 154.910156 17.863281 155.253906 18.640625 155.253906 19.585938 L 155.253906 39.277344 C 155.253906 41.089844 155.632812 42.667969 156.394531 44.007812 C 157.191406 45.316406 158.222656 46.332031 159.488281 47.054688 C 160.792969 47.78125 162.167969 48.144531 163.617188 48.144531 C 165.171875 48.144531 166.621094 47.78125 167.960938 47.054688 C 169.300781 46.332031 170.386719 45.316406 171.21875 44.007812 C 172.050781 42.667969 172.46875 41.089844 172.46875 39.277344 L 172.46875 19.585938 C 172.46875 18.640625 172.738281 17.863281 173.28125 17.246094 C 173.824219 16.59375 174.566406 16.265625 175.507812 16.265625 Z M 195.128906 54.945312 C 193.066406 54.945312 191.148438 54.527344 189.375 53.691406 C 187.601562 52.859375 186.152344 51.660156 185.03125 50.101562 C 184.59375 49.449219 184.378906 48.816406 184.378906 48.199219 C 184.378906 47.292969 184.722656 46.53125 185.410156 45.914062 C 186.132812 45.296875 186.839844 44.988281 187.527344 44.988281 C 188.070312 44.988281 188.59375 45.152344 189.101562 45.476562 C 189.644531 45.804688 190.132812 46.1875 190.570312 46.621094 C 191.292969 47.273438 192 47.746094 192.6875 48.035156 C 193.410156 48.289062 194.226562 48.414062 195.128906 48.414062 C 196.214844 48.414062 197.230469 48.144531 198.171875 47.601562 C 199.113281 47.054688 199.871094 46.332031 200.453125 45.425781 C 201.03125 44.515625 201.320312 43.539062 201.320312 42.488281 L 201.320312 19.636719 C 201.320312 18.695312 201.664062 17.914062 202.351562 17.300781 C 203.039062 16.644531 203.835938 16.320312 204.742188 16.320312 C 205.753906 16.320312 206.570312 16.644531 207.183594 17.300781 C 207.800781 17.914062 208.109375 18.695312 208.109375 19.636719 L 208.109375 42.488281 C 208.109375 44.699219 207.527344 46.746094 206.371094 48.632812 C 205.210938 50.519531 203.65625 52.042969 201.699219 53.203125 C 199.746094 54.363281 197.554688 54.945312 195.128906 54.945312 Z M 223.027344 51.082031 C 223.027344 52.023438 222.683594 52.824219 221.996094 53.476562 C 221.308594 54.09375 220.511719 54.398438 219.609375 54.398438 C 218.59375 54.398438 217.78125 54.09375 217.164062 53.476562 C 216.546875 52.824219 216.242188 52.023438 216.242188 51.082031 L 216.242188 19.636719 C 216.242188 18.695312 216.566406 17.914062 217.21875 17.300781 C 217.871094 16.644531 218.703125 16.320312 219.714844 16.320312 C 220.585938 16.320312 221.34375 16.644531 221.996094 17.300781 C 222.683594 17.914062 223.027344 18.695312 223.027344 19.636719 Z M 257.371094 54.398438 C 256.355469 54.398438 255.542969 53.984375 254.925781 53.148438 L 242.382812 36.609375 L 247.324219 31.550781 L 260.300781 48.742188 C 260.808594 49.429688 261.0625 50.175781 261.0625 50.972656 C 261.0625 51.988281 260.683594 52.824219 259.921875 53.476562 C 259.160156 54.09375 258.3125 54.398438 257.371094 54.398438 Z M 258.019531 16.046875 C 258.890625 16.046875 259.597656 16.410156 260.140625 17.136719 C 260.71875 17.824219 261.007812 18.53125 261.007812 19.257812 C 261.007812 20.019531 260.683594 20.726562 260.03125 21.378906 L 237.277344 43.195312 L 237.007812 35.414062 L 255.359375 17.300781 C 256.191406 16.464844 257.082031 16.046875 258.019531 16.046875 Z M 234.5625 54.398438 C 233.546875 54.398438 232.734375 54.09375 232.117188 53.476562 C 231.503906 52.824219 231.195312 52.023438 231.195312 51.082031 L 231.195312 19.636719 C 231.195312 18.695312 231.519531 17.914062 232.171875 17.300781 C 232.824219 16.644531 233.65625 16.320312 234.671875 16.320312 C 235.683594 16.320312 236.480469 16.644531 237.058594 17.300781 C 237.675781 17.914062 237.984375 18.695312 237.984375 19.636719 L 237.984375 51.082031 C 237.984375 52.023438 237.675781 52.824219 237.058594 53.476562 C 236.445312 54.09375 235.613281 54.398438 234.5625 54.398438 Z M 300.105469 35.359375 C 300.105469 38.078125 299.65625 40.617188 298.75 42.976562 C 297.84375 45.332031 296.558594 47.417969 294.894531 49.230469 C 293.265625 51.007812 291.308594 52.40625 289.027344 53.421875 C 286.785156 54.4375 284.324219 54.945312 281.644531 54.945312 C 278.964844 54.945312 276.503906 54.4375 274.257812 53.421875 C 272.015625 52.40625 270.058594 51.007812 268.394531 49.230469 C 266.765625 47.417969 265.496094 45.332031 264.59375 42.976562 C 263.6875 40.617188 263.234375 38.078125 263.234375 35.359375 C 263.234375 32.640625 263.6875 30.101562 264.59375 27.742188 C 265.496094 25.386719 266.765625 23.320312 268.394531 21.542969 C 270.058594 19.730469 272.015625 18.316406 274.257812 17.300781 C 276.503906 16.285156 278.964844 15.777344 281.644531 15.777344 C 284.324219 15.777344 286.785156 16.285156 289.027344 17.300781 C 291.308594 18.316406 293.265625 19.730469 294.894531 21.542969 C 296.558594 23.320312 297.84375 25.386719 298.75 27.742188 C 299.65625 30.101562 300.105469 32.640625 300.105469 35.359375 Z M 293.046875 35.359375 C 293.046875 32.929688 292.558594 30.734375 291.582031 28.777344 C 290.601562 26.78125 289.265625 25.207031 287.5625 24.042969 C 285.863281 22.882812 283.886719 22.304688 281.644531 22.304688 C 279.398438 22.304688 277.425781 22.882812 275.722656 24.042969 C 274.023438 25.207031 272.683594 26.765625 271.707031 28.722656 C 270.765625 30.679688 270.292969 32.894531 270.292969 35.359375 C 270.292969 37.789062 270.765625 40.003906 271.707031 41.996094 C 272.683594 43.957031 274.023438 45.515625 275.722656 46.675781 C 277.425781 47.835938 279.398438 48.414062 281.644531 48.414062 C 283.886719 48.414062 285.863281 47.835938 287.5625 46.675781 C 289.265625 45.515625 290.601562 43.957031 291.582031 41.996094 C 292.558594 40.003906 293.046875 37.789062 293.046875 35.359375 Z M 309.761719 16.265625 C 310.269531 16.265625 310.792969 16.410156 311.335938 16.699219 C 311.914062 16.953125 312.347656 17.300781 312.640625 17.734375 L 325.835938 38.078125 L 323.121094 37.972656 L 336.640625 17.734375 C 337.328125 16.753906 338.214844 16.265625 339.300781 16.265625 C 340.171875 16.265625 340.949219 16.574219 341.636719 17.191406 C 342.324219 17.808594 342.667969 18.605469 342.667969 19.585938 L 342.667969 51.082031 C 342.667969 52.023438 342.363281 52.824219 341.746094 53.476562 C 341.128906 54.09375 340.316406 54.398438 339.300781 54.398438 C 338.289062 54.398438 337.457031 54.09375 336.804688 53.476562 C 336.1875 52.824219 335.882812 52.023438 335.882812 51.082031 L 335.882812 25.460938 L 338 25.949219 L 326.921875 42.867188 C 326.59375 43.265625 326.179688 43.609375 325.671875 43.902344 C 325.203125 44.191406 324.714844 44.316406 324.207031 44.28125 C 323.738281 44.316406 323.246094 44.191406 322.738281 43.902344 C 322.269531 43.609375 321.871094 43.265625 321.546875 42.867188 L 311.171875 26.4375 L 312.585938 23.554688 L 312.585938 51.082031 C 312.585938 52.023438 312.292969 52.824219 311.714844 53.476562 C 311.136719 54.09375 310.378906 54.398438 309.433594 54.398438 C 308.53125 54.398438 307.789062 54.09375 307.210938 53.476562 C 306.628906 52.824219 306.339844 52.023438 306.339844 51.082031 L 306.339844 19.585938 C 306.339844 18.675781 306.664062 17.898438 307.316406 17.246094 C 308.003906 16.59375 308.820312 16.265625 309.761719 16.265625 Z M 309.761719 16.265625 "/>
</g>
</svg>
